Coordinates
version=1
nRows=13
nColumns=36
inDegrees=yes

Units are S.I. units (second, meters, Newtons, ...)
If the header above contains a line with 'inDegrees', this indicates whether rotational values are in degrees (yes) or radians (no).

endheader
time	pelvis_tilt	pelvis_list	pelvis_rotation	pelvis_tx	pelvis_ty	pelvis_tz	hip_flexion_r	hip_adduction_r	hip_rotation_r	knee_angle_r	knee_angle_r_beta	ankle_angle_r	subtalar_angle_r	mtp_angle_r	hip_flexion_l	hip_adduction_l	hip_rotation_l	knee_angle_l	knee_angle_l_beta	ankle_angle_l	subtalar_angle_l	mtp_angle_l	lumbar_extension	lumbar_bending	lumbar_rotation	arm_flex_r	arm_add_r	arm_rot_r	elbow_flex_r	pro_sup_r	arm_flex_l	arm_add_l	arm_rot_l	elbow_flex_l	pro_sup_l
      4.10000000	     -5.12439511	      0.50475471	     -5.52281774	      1.76567857	      0.98002065	     -0.25254681	      4.77490204	     -4.84216433	    -16.53759344	      6.45561414	      0.11267172	     14.02734259	      5.48558249	     -7.49999987	      4.08759259	     -9.09824377	    -16.46500901	      5.23994540	      0.09145430	      5.45840512	      7.56321470	     -7.49999987	    -14.06997440	      1.46184733	      3.80135980	      6.35462634	    -16.11826788	      7.59304244	     25.79272961	     85.56530506	     -1.60951024	    -12.78980100	     -7.28830422	     28.35457884	     85.20576569
      4.11666670	     -5.83976725	      0.54135539	     -5.28777794	      1.76887807	      0.98297046	     -0.25108158	      5.07755402	     -4.71974386	    -16.50193312	      5.77517252	      0.10079578	     13.33654268	      5.64305767	     -7.49999987	      4.22852418	     -8.92538760	    -16.01978453	      4.12175458	      0.07193819	      4.93091093	      7.80641388	     -7.49999987	    -12.22408600	      1.63509346	      3.79896313	      5.07635074	    -16.01027493	      7.32943046	     25.84573708	     86.91119392	     -2.69766218	    -12.11274340	     -7.97530286	     27.89039353	     86.66389611
      4.13333330	     -5.95881188	      0.54708374	     -5.04795813	      1.77165442	      0.98316399	     -0.25008772	      4.67809204	     -4.59766191	    -16.51545791	      5.01398096	      0.08751048	     12.94349597	      5.99463285	     -7.49999987	      3.77540673	     -8.75986495	    -15.70770576	      3.10057043	      0.05411516	      4.61152573	      8.33351238	     -7.49999987	    -11.03168134	      1.70620008	      3.72655088	      3.96445358	    -15.83553154	      7.05936215	     25.61362039	     87.63702912	     -3.45715838	    -11.74134209	     -8.21559496	     27.19830180	     87.55313168
      4.15000000	     -5.98998205	      0.39138645	     -4.91277487	      1.78092233	      0.98363470	     -0.24841122	      4.10728273	     -4.31049553	    -16.39628160	      4.28233861	      0.07474091	     12.33464501	      6.08897819	     -7.49999987	      3.04644203	     -8.76687900	    -15.40722449	      2.16562733	      0.03779733	      4.30153500	      8.62903112	     -7.49999987	     -9.62782778	      1.93628772	      3.64694630	      2.81339341	    -15.70454519	      7.09675477	     25.44060893	     87.89629054	     -4.44051194	    -11.41561701	     -8.24652181	     26.86369994	     87.80445128
      4.16666670	     -6.05628933	      0.26632381	     -4.72040118	      1.78315676	      0.98313698	     -0.25157566	      3.63725358	     -4.09253715	    -16.17927761	      3.69554373	      0.06449941	     12.09122990	      6.00668313	     -7.49999987	      2.58709216	     -8.75019619	    -15.02484198	      1.58663577	      0.02769202	      4.36672938	      8.90449525	     -7.49999987	     -8.29934471	      2.16954506	      3.93617609	      1.05616054	    -15.38425312	      4.01815787	     25.78675186	     95.11492346	     -4.60037205	    -10.92556215	     -9.65402505	     25.63132894	     94.92476746
      4.18333330	     -6.13206602	      0.17160002	     -4.55343392	      1.78552188	      0.98039324	     -0.24943391	      3.24338372	     -3.89818557	    -16.01205540	      3.24972193	      0.05671835	     12.09904994	      5.99081956	     -7.49999987	      2.25258182	     -8.77280932	    -14.66277918	      1.20561669	      0.02104198	      4.52099366	      9.20444397	     -7.49999987	     -7.08108306	      2.32891868	      3.94137655	      0.03253533	    -15.23811707	      3.85052920	     25.39202617	     96.09022653	     -4.89904149	    -10.71961188	     -9.17723215	     24.51592620	     95.36795517
      4.20000000	     -6.09452767	      0.09320792	     -4.37492710	      1.78755225	      0.97242571	     -0.25305874	      2.87999382	     -3.78747771	    -15.99779611	      2.97255516	      0.05188087	     12.46302822	      6.03179373	     -7.49999987	      1.92986084	     -8.73465808	    -14.41178525	      0.98795838	      0.01724313	      4.88138267	      9.37594132	     -7.49999987	     -6.13723769	      2.50012424	      3.75154748	     -0.91523288	    -15.13003904	      4.16305411	     25.17017058	     94.71705808	     -5.34120251	    -10.46960930	     -8.82774900	     23.76898600	     93.98889123
      4.21666670	     -6.02668040	      0.01978935	     -4.24731196	      1.78640456	      0.96626304	     -0.25315127	      2.58035993	     -3.67964602	    -15.92114253	      2.82625353	      0.04932743	     13.01377573	      6.00733574	     -7.49999987	      1.68549565	     -8.72571645	    -14.41160262	      0.89155829	      0.01556063	      5.38063287	      9.74354420	     -7.49999987	     -5.36806430	      2.59291685	      3.64334972	     -1.59297731	    -15.12957144	      4.85310964	     24.94849542	     92.85129812	     -5.60603639	    -10.28200710	     -7.84524942	     22.76086086	     92.11167520
      4.23333330	     -5.90518616	     -0.03341266	     -4.04975343	      1.78504202	      0.96084461	     -0.25418975	      2.27748982	     -3.60341545	    -15.77951943	      2.73702131	      0.04777003	     13.48496165	      5.61972923	     -7.49999987	      1.51740313	     -8.67002384	    -14.08910324	      0.83569942	      0.01458571	      5.77044686	      9.51505616	     -7.49999987	     -4.88713951	      2.63675897	      3.85495632	     -2.42970501	    -14.95150684	      3.40637379	     25.14907541	     97.90543077	     -5.43683780	    -10.19506385	     -7.01675487	     21.70233419	     96.60377922
      4.25000000	     -5.70270252	      0.07003628	     -3.79726910	      1.78362705	      0.95391782	     -0.26497722	      1.99408414	     -3.82232213	    -15.82597618	      2.80461245	      0.04894972	     14.19214997	      5.39056471	     -7.49999987	      1.32681378	     -8.33369421	    -13.98355149	      0.79080840	      0.01380221	      6.21353388	      9.49167579	     -7.49999987	     -4.63879279	      2.59507330	      3.61392600	     -2.57843569	    -14.97168693	      3.82025495	     24.83765844	     97.54792365	     -5.42256038	     -9.99305745	     -5.87509350	     20.72131222	     96.23333554
      4.26666670	     -5.40268791	      0.12956586	     -3.55485967	      1.78253085	      0.94528363	     -0.26581186	      1.62263463	     -4.00277958	    -15.76311813	      2.89464283	      0.05052105	     14.99228656	      5.03546316	     -7.49999987	      1.04606459	     -8.03870954	    -13.92951409	      0.81141204	      0.01416181	      6.81460864	      9.46931978	     -7.49999987	     -4.60989241	      2.60041500	      3.71279329	     -2.99517441	    -14.89111509	      2.78661166	     25.06263715	     98.83975065	     -5.28109813	     -9.72005390	     -5.16487819	     20.04360550	     96.66326992
      4.28333330	     -4.73785854	      0.32580801	     -3.55496741	      1.78437915	      0.93582692	     -0.27328458	      0.97680531	     -4.42127358	    -15.59576640	      3.08964237	      0.05392443	     15.80865011	      4.72416135	     -7.49999987	      0.29230728	     -7.52804283	    -14.03478672	      0.80850486	      0.01411107	      7.48769714	      9.40835117	     -7.49999987	     -5.19768793	      2.49718937	      3.55047160	     -3.23599075	    -15.02912139	      2.80812707	     26.06352896	     95.75101983	     -5.82060547	     -9.39822238	     -4.89924176	     20.76701518	     93.65622007
      4.30000000	     -4.52966385	      0.55595228	     -3.40738148	      1.78011838	      0.93175610	     -0.27494769	      0.90807101	     -4.87238399	    -15.69230891	      3.45145561	      0.06023926	     16.76759968	      4.74587581	     -7.49999987	      0.20297333	     -7.05788608	    -13.99635275	      0.93747587	      0.01636204	      8.11753365	      9.33698672	     -7.49999987	     -4.96695054	      2.41244713	      3.27789961	     -2.51325861	    -15.01212142	      3.52801722	     24.17891953	     95.86600589	     -5.17023664	     -9.10623230	     -3.68841398	     18.20149588	     93.59906597
